<?xml version="1.0" encoding="UTF-8"?><svg xmlns="http://www.w3.org/2000/svg" viewBox="0 0 19.45 19.99"><defs><style>.d{fill:#1c424a;}</style></defs><g id="a"/><g id="b"><g id="c"><g><path class="d" d="M17.86,5.29c-.32-2.29-2.12-3.74-4.53-3.74-1.7,0-3.4-.02-5.09,0-1.65,.02-3.59-.22-5.03,.77-.57,.4-.98,.92-1.26,1.55-.26,.59-.4,1.24-.42,1.89,0,.26,0,.52-.08,.76-.2,.58-1.06,.68-1.33,.1-.09-.2-.1-.43-.09-.66,.04-1.73,.7-3.54,2.06-4.66C3.35,.26,5.07,.02,6.65,.02c2.05,0,4.09-.04,6.14,0,1.87,.04,3.57,.27,4.96,1.68,1.4,1.42,1.56,3.11,1.65,4.98,.07,1.56,.05,3.12,.02,4.68-.04,2.53,.17,5.29-1.87,7.16-.75,.68-1.63,1.09-2.62,1.3-.53,.11-1.07,.16-1.61,.16-2.44,0-4.89,0-7.33,0-1.07,0-2.09-.21-3.04-.71-.89-.47-1.58-1.15-2.08-2.02C-.22,15.37,.02,13.17,.03,11.08c0-.23,.19-.52,.47-.61,.44-.14,.97,.15,1.01,.71,.01,.03,0,.06,0,.1,0,1.82-.3,3.99,.83,5.56,.38,.54,.89,.93,1.49,1.2,1.21,.54,2.52,.44,3.81,.42,1.51-.02,3.01,0,4.52,0,1.71,0,3.36,.03,4.63-1.33,1.25-1.34,1.13-3.06,1.13-4.77,0-2.11,0-4.22,0-6.32,0-.26-.02-.51-.05-.75Z"/><path class="d" d="M14.18,9.51c.3,.33,.2,.82-.18,1.21-.59,.59-1.16,1.19-1.74,1.78s-1.13,1.33-1.8,1.82c-.33,.25-.8,.18-1.03-.17-.16-.24-.16-.54-.02-.79,.1-.18,.24-.33,.38-.47,.7-.7,1.38-1.41,2.08-2.12,0-.01,0-.02-.02-.02-.03,0-.06,0-.09,0-2,0-4,0-6,0-.04,0-.07,0-.11,0-.43-.05-.64-.43-.64-.74,0-.37,.21-.68,.64-.75,.03,0,.07,0,.1,0,2.64,0,5.28,0,7.92,0,.03,0,.07,0,.1,0,.18,.06,.31,.15,.41,.25Z"/><path class="d" d="M9.56,6.84c-.07-.08-.14-.17-.18-.27-.11-.25-.08-.56,.09-.78s.47-.32,.74-.25c.23,.06,.41,.25,.58,.42l.85,.88c.27,.28,.51,.65,.3,1.04-.16,.29-.59,.49-.91,.36-.15-.06-.27-.18-.38-.3l-.92-.93c-.05-.05-.11-.11-.16-.17Z"/></g></g></g></svg>