<?xml version="1.0" encoding="UTF-8"?><svg xmlns="http://www.w3.org/2000/svg" viewBox="0 0 19.57 24.66"><defs><style>.d{fill:#1c424a;}</style></defs><g id="a"/><g id="b"><g id="c"><path class="d" d="M15.68,4.32c-.38-.4-.79-.77-1.24-1.09-3.2-2.28-7.73-1.93-10.49,.9-1.68,1.73-2.51,4.23-2.21,6.62s1.74,4.61,3.79,5.87c.36,.22,.77,.46,.89,.86,.14,.48-.3,1.02-.8,.99-.21-.01-.41-.11-.59-.22C2.28,16.73,.36,13.8,.05,10.67-.39,6.28,2.31,1.98,6.49,.54c.35-.12,.71-.22,1.07-.3C8.4,.05,9.25-.03,10.1,0c2.23,.1,4.2,.87,5.91,2.29,1,.83,1.81,1.83,2.42,2.98,.39,.74,.69,1.53,.88,2.34,.62,2.6,.09,5.45-1.4,7.67-.25,.37-.52,.72-.82,1.05-.53,.59-1.12,1.11-1.78,1.55-1.29,.87-2.79,1.42-4.33,1.61l.03,3.92c0,.32,0,.65-.18,.92-.28,.42-1,.43-1.3,.02-.19-.26-.2-.6-.2-.92l-.04-4.55c0-.21,0-.44,.11-.62,.2-.32,.65-.35,1.02-.38,1.86-.13,3.67-.93,5.01-2.22,3.15-3.04,3.21-8.16,.24-11.34Z"/></g></g></svg>