<?xml version="1.0" encoding="UTF-8"?><svg xmlns="http://www.w3.org/2000/svg" viewBox="0 0 20.29 20.97"><defs><style>.d{fill:#fff;}</style></defs><g id="a"/><g id="b"><g id="c"><path class="d" d="M19.31,20.94c-.18-.05-.36-.15-.5-.29-.22-.21-.43-.44-.65-.65-.57-.57-1.13-1.14-1.7-1.72-.07-.04-.13-.09-.16-.17-.16-.16-.31-.31-.47-.47-.02-.02-.04-.02-.06,0-2.26,1.98-5.81,2.53-8.65,1.73-2.18-.61-4.1-1.99-5.39-3.85-.15-.21-.29-.43-.41-.66C-.13,12.25-.44,9.04,.66,6.23c.13-.32,.26-.64,.43-.95,.25-.48,.53-.93,.86-1.36,.16-.21,.33-.41,.51-.61C4.8,.7,8.46-.55,11.9,.23c2.53,.58,4.8,2.22,6.16,4.43s1.79,4.97,1.2,7.5c-.07,.32-.17,.64-.38,.89s-.56,.41-.87,.3c-.3-.11-.48-.44-.5-.76s.06-.64,.13-.95c.45-1.99,.11-4.16-.92-5.92-1.69-2.89-5.1-4.48-8.39-3.87-1.24,.23-2.41,.76-3.42,1.52-.39,.3-.75,.63-1.08,.99-.43,.47-.8,.97-1.11,1.52-1.33,2.4-1.38,5.42-.11,7.85,.24,.47,.54,.91,.87,1.33,.23,.29,.48,.56,.75,.81,1.56,1.44,3.63,2.27,5.76,2.21,1.93-.05,3.87-.83,5.27-2.17,.14-.13,.3-.24,.5-.28,.03-.01,.06,0,.09-.01,.21,0,.4,.05,.56,.18,.03,.02,.06,.05,.08,.08,.06,.11,.15,.19,.24,.28,.29,.3,.59,.59,.88,.89,.54,.54,1.08,1.09,1.61,1.63,.26,.27,.53,.52,.78,.8,.33,.36,.43,.92,.04,1.29-.22,.2-.48,.24-.73,.18Z"/></g></g></svg>